<svg width="370" height="370" xmlns="http://www.w3.org/2000/svg">
 <!-- Created with Method Draw - http://github.com/duopixel/Method-Draw/ -->

 <g stroke="null">
  <title>background</title>
  <rect x="-1" y="-1" width="372" height="372" id="canvas_background" fill="none" stroke="null"/>
  <g id="canvasGrid" display="none" stroke="null">
   <rect id="svg_4" width="100%" height="100%" x="0" y="0" stroke-width="0" fill="url(#gridpattern)"/>
  </g>
 </g>
 <g stroke="null">
  <title>Layer 1</title>
  <rect fill="#000000" stroke-width="0" stroke-opacity="null" x="159.00001" y="100" width="119.00001" height="10" id="svg_2" rx="6" stroke="#000"/>
  <rect fill="#000000" stroke-width="0" stroke-opacity="null" x="158.00002" y="135" width="120" height="10" id="svg_15" rx="6" stroke="#000"/>
  <rect fill="#000000" stroke-width="0" stroke-opacity="null" x="88.00002" y="170" width="190" height="10" id="svg_16" rx="6" stroke="#000"/>
  <rect stroke="#000" fill="#000000" stroke-width="0" stroke-opacity="null" x="89.00002" y="205" width="143.00001" height="10" id="svg_17" rx="6"/>
  <rect fill="#000000" stroke-width="0" stroke-opacity="null" x="88.00002" y="240" width="90.99998" height="10" id="svg_18" rx="6" stroke="#000"/>
  <ellipse fill="none" stroke-width="10" stroke-opacity="null" cx="261.5" cy="268" id="svg_19" rx="66.5" ry="66.5" stroke="#000"/>
  <rect fill="#000000" stroke-width="0" stroke-opacity="null" x="217.47523" y="272.81846" width="48.16813" height="10" id="svg_21" rx="6" transform="rotate(-131.1553497314453 241.55929565429685,277.8184509277344) " stroke="#000"/>
  <rect fill="#000000" stroke-width="0" stroke-opacity="null" x="239.95866" y="264.03862" width="71.65453" height="10" id="svg_22" rx="6" transform="rotate(-48.13158416748047 275.7859191894532,269.0386047363281) " stroke="#000"/>
  <rect fill="#000000" stroke-width="0" stroke-opacity="null" x="70.87438" y="111.43517" width="70.34116" height="10" id="svg_24" rx="6" transform="rotate(-66.76801300048828 106.04496002197267,116.43517303466798) " stroke="#000"/>
  <rect fill="#000000" stroke-width="0" stroke-opacity="null" x="95.34833" y="110.4357" width="70.33206" height="10" id="svg_25" rx="6" transform="rotate(-114.24842071533203 130.5143585205078,115.43571472167969) " stroke="#000"/>
  <rect fill="#000000" stroke-width="0" stroke-opacity="null" x="100" y="127" width="39.00001" height="10" id="svg_26" rx="6" stroke="#000"/>
  <rect stroke="#000" fill="#000000" stroke-width="0" stroke-opacity="null" x="63.00002" y="60" width="242" height="10" id="svg_5" rx="6"/>
  <rect stroke="#000" fill="#000000" stroke-width="0" stroke-opacity="null" x="63.00002" y="300" width="143" height="10" id="svg_6" rx="6"/>
  <rect stroke="#000" transform="rotate(90 67.50003051757811,185.00000000000003) " fill="#000000" stroke-width="0" stroke-opacity="null" x="-55.99998" y="180" width="247" height="10" id="svg_7" rx="6"/>
  <rect stroke="#000" transform="rotate(90 299.5000305175782,137.49998474121097) " fill="#000000" stroke-width="0" stroke-opacity="null" x="223.50003" y="132.49998" width="152.00001" height="10" id="svg_8" rx="6"/>
 </g>
</svg>